<svg version="1.1" id="svg2" xmlns="http://www.w3.org/2000/svg" xmlns:xlink="http://www.w3.org/1999/xlink" viewBox="0 0 118 118">
  <defs>
    <g id="pad">
			<path id="rect2235" stroke="#FFFFFF" stroke-width="1.6523" stroke-linecap="round" d="M87.542,362.004c-2.686,0-4.713,2.216-4.713,4.902v33.747H49.082c-2.686,0-4.902,2.217-4.902,4.902v27.148c0,2.686,2.216,4.901,4.902,4.901h33.747v33.747c0,2.686,2.028,4.714,4.713,4.714h27.337c2.686,0,4.713-2.027,4.713-4.714v-33.747h33.747c2.686,0,4.902-2.216,4.902-4.901v-27.148c0-2.686-2.216-4.902-4.902-4.902h-33.747v-33.747c0-2.686-2.028-4.902-4.713-4.902H87.542z"/>
			<path id="rect3757" fill="#2b2b2b" d="M88.484,366.254c-0.85,0-1.506,0.657-1.506,1.506v36.832H50.146c-0.849,0-1.506,0.656-1.506,1.506v25.948c0,0.85,0.657,1.574,1.506,1.574h36.832v36.765c0,0.849,0.657,1.574,1.506,1.574H114.5c0.85,0,1.506-0.726,1.506-1.574V433.62h36.832c0.85,0,1.506-0.725,1.506-1.574v-25.948c0-0.85-0.657-1.506-1.506-1.506h-36.832V367.76c0-0.85-0.656-1.506-1.506-1.506H88.484z"/>
			<path id="path2950" fill="none" stroke="#000000" stroke-width="0.5" d="M63.181,408.339l-5.477,5.478l-5.477,5.477l5.477,5.478l5.477,5.477v-3.286h10.954v-15.336H63.181V408.339z"/>
			<path id="path3727" fill="none" stroke="#000000" stroke-width="0.5" d="M139.683,408.339l5.477,5.478l5.477,5.477l-5.477,5.478l-5.477,5.477v-3.286h-10.954v-15.336h10.954V408.339z"/>
			<path id="path3729" fill="none" stroke="#000000" stroke-width="0.5" d="M112.276,380.669l-5.477-5.477l-5.477-5.477l-5.477,5.477l-5.477,5.477h3.286v10.954h15.336v-10.954H112.276z"/>
			<path id="path3731" fill="none" stroke="#000000" stroke-width="0.5" d="M112.276,458.333l-5.477,5.478l-5.477,5.477l-5.477-5.477l-5.477-5.478h3.286v-10.954h15.336v10.954H112.276z"/>
			<path id="path3763" fill="none" stroke="#000000" stroke-width="0.7366" d="M114.646,419.111c0.004,7.26-5.876,13.148-13.136,13.153s-13.148-5.877-13.153-13.136c0-0.006,0-0.012,0-0.018c-0.005-7.26,5.876-13.148,13.136-13.153c7.259-0.005,13.148,5.876,13.153,13.136C114.646,419.099,114.646,419.105,114.646,419.111z"/>
		</g>
  </defs>
  <use xlink:href="#pad" x="-42" y="-360"/>
</svg>
